<svg width="40" height="40" viewBox="0 0 40 40" fill="none" xmlns="http://www.w3.org/2000/svg">
<rect width="40" height="40" rx="20" fill="black" fill-opacity="0.04"/>
<path d="M15.8752 15.8752C18.1513 13.5991 21.8404 13.5972 24.1189 15.8694L22.5211 17.4749C22.2064 17.791 22.4318 18.3297 22.8778 18.3276L27.1 18.3075C27.3209 18.3064 27.4991 18.1265 27.4981 17.9056L27.4781 13.703C27.476 13.2582 26.9375 13.0374 26.6237 13.3527L25.2947 14.6881C22.365 11.7678 17.6228 11.7706 14.6967 14.6967C13.3596 16.0338 12.6328 17.7516 12.5166 19.5003C12.4983 19.7759 12.7239 20 13 20L13.6667 20C13.9428 20 14.1645 19.7757 14.1879 19.5006C14.3008 18.1775 14.8631 16.8873 15.8752 15.8752Z" fill="black"/>
<path d="M24.1248 24.1248C25.1369 23.1127 25.6992 21.8225 25.8121 20.4994C25.8356 20.2242 26.0572 20 26.3333 20L27 20C27.2761 20 27.5017 20.2241 27.4834 20.4996C27.3672 22.2484 26.6404 23.9662 25.3033 25.3033C22.3772 28.2294 17.635 28.2322 14.7053 25.3119L13.3763 26.6473C13.0625 26.9626 12.524 26.7418 12.5219 26.297L12.5019 22.0944C12.5009 21.8735 12.6791 21.6936 12.9 21.6925L17.1222 21.6724C17.5682 21.6703 17.7936 22.209 17.4789 22.5251L15.8811 24.1306C18.1596 26.4028 21.8487 26.4009 24.1248 24.1248Z" fill="black"/>
</svg>
